<svg xmlns="http://www.w3.org/2000/svg" viewBox="0 0 62.27 57.05"><defs><style>.cls-1{fill:#f8c40a;}.cls-2{fill:#fff;}</style></defs><g id="Layer_2" data-name="Layer 2"><g id="Layer_1-2" data-name="Layer 1"><path class="cls-1" d="M30.79,0,30.2,2.19,28.5,8.5,28,10.39,18.68,8l-7-1.8-1.9,7-.57,2.1c0,.16-3,11.25-3,11.25l9.48-7.23.6-2.22.57-2.1,4.15,1.06,5.15,1.31,7.65,2,1.89-7,.51-1.89C36.18,10.19,39,0,39,0Z"/><polygon class="cls-2" points="24.11 24.74 32.28 24.74 33.17 21.46 25.52 19.51 24.11 24.74"/><polygon class="cls-2" points="20.26 2.19 12.72 2.19 12.15 4.33 19.2 6.13 20.26 2.19"/><polygon class="cls-2" points="8.45 32.51 4.67 32.51 1.65 43.7 5.43 43.7 8.45 32.51"/><polygon class="cls-2" points="15.72 32.51 15.7 32.51 15.71 32.54 15.72 32.51"/><polygon class="cls-2" points="24.13 32.51 20.74 36.38 19.49 32.51 16.68 32.51 16.25 34.18 18 39.59 16.9 43.7 20.67 43.7 21.76 39.64 27.91 32.51 24.13 32.51"/><path class="cls-2" d="M49.49,33.48a5.14,5.14,0,0,0-3.36-1h-5l-3,11.19h3.77s1.9-6.83,2.23-8.28h1.26c.94,0,1.38.38,1.33,1.14a1.55,1.55,0,0,1-.51,1.09,1.86,1.86,0,0,1-1.24.39h-.59L43.58,41l1.35,2.74h3.92L47.2,40.44a5.13,5.13,0,0,0,2.35-1.65,4.65,4.65,0,0,0,1-2.6A3,3,0,0,0,49.49,33.48Z"/><path class="cls-2" d="M60.4,32.51H56.69L48.78,43.7h4c1.43-2.21,4.84-7.53,4.84-7.53L58,39H56.68L55,41.75h3.3l.24,2h3.75Z"/><polygon class="cls-2" points="11.93 32.51 10.85 36.48 8.38 36.48 7.54 39.58 10.03 39.58 8.91 43.7 12.68 43.7 15.7 32.51 11.93 32.51"/><path class="cls-2" d="M38.31,34.73a4,4,0,0,0-1.86-1.64,7,7,0,0,0-3-.58h-5l-3,11.19h3.78l2.22-8.25h1.44A2.39,2.39,0,0,1,34.5,36a1.77,1.77,0,0,1,.5,1.5,3.7,3.7,0,0,1-1,2.36,3.07,3.07,0,0,1-2.33.92H31l-.8,2.94h1.22A8.3,8.3,0,0,0,35,42.91a6.68,6.68,0,0,0,2.65-2.25,6.82,6.82,0,0,0,1.13-3.4A4.36,4.36,0,0,0,38.31,34.73Z"/><path class="cls-1" d="M44.53,48.4l-.35,1.32h4.76l-.74,2.74H43.42L43,53.94h5.65L47.9,56.8H38.54l3-11.26h9.15L50,48.4Z"/><polygon class="cls-1" points="10.43 45.54 9.02 50.78 6.15 45.54 3.03 45.54 0 56.8 3.69 56.8 5.11 51.55 7.97 56.8 11.09 56.8 14.13 45.54 10.43 45.54"/><path class="cls-1" d="M25.53,47.69a4.22,4.22,0,0,0-1.87-1.77,6.38,6.38,0,0,0-3-.64,8.08,8.08,0,0,0-3.72.85,7,7,0,0,0-2.7,2.39A7.2,7.2,0,0,0,13.12,52a4.62,4.62,0,0,0,.52,2.62,4.14,4.14,0,0,0,1.87,1.78,6,6,0,0,0,2.12.6l.83-3.09a1.81,1.81,0,0,1-1-.54A2,2,0,0,1,17,51.8a4.36,4.36,0,0,1,.47-1.73,3.28,3.28,0,0,1,1.11-1.25,2.84,2.84,0,0,1,1.6-.47,1.88,1.88,0,0,1,2.05,2.19,4.31,4.31,0,0,1-.47,1.72,3.24,3.24,0,0,1-1.11,1.26,2.68,2.68,0,0,1-1.16.43l-.84,3.1a8.17,8.17,0,0,0,3.58-.84,6.91,6.91,0,0,0,2.69-2.39,7.15,7.15,0,0,0,1.16-3.5A4.76,4.76,0,0,0,25.53,47.69Z"/><path class="cls-1" d="M38.54,47.77a4,4,0,0,0-1.87-1.65,7.07,7.07,0,0,0-3-.58H28.56l-3,11.26h3.81l2.23-8.3H33a2.4,2.4,0,0,1,1.71.53,1.79,1.79,0,0,1,.49,1.51,3.65,3.65,0,0,1-1,2.37,3.09,3.09,0,0,1-2.35.93h-.76l-.79,3h1.22a8.33,8.33,0,0,0,3.7-.8,6.65,6.65,0,0,0,2.66-2.26,6.83,6.83,0,0,0,1.14-3.42A4.33,4.33,0,0,0,38.54,47.77Z"/></g></g></svg>